<svg width="22" height="22" viewBox="0 0 22 22" fill="none" xmlns="http://www.w3.org/2000/svg">
<path d="M15.9959 20.8543C14.96 20.8543 13.8692 20.6068 12.7417 20.1302C11.6417 19.6627 10.5325 19.021 9.45087 18.2418C8.37837 17.4535 7.34254 16.5735 6.36171 15.611C5.39004 14.6302 4.51004 13.5943 3.73087 12.531C2.94254 11.431 2.31004 10.331 1.86087 9.26766C1.38421 8.131 1.14587 7.031 1.14587 5.99516C1.14587 5.28016 1.27421 4.60183 1.52171 3.96933C1.77837 3.3185 2.19087 2.7135 2.75004 2.191C3.45587 1.49433 4.26254 1.146 5.12421 1.146C5.48171 1.146 5.84837 1.2285 6.16004 1.37516C6.51754 1.54016 6.82004 1.78766 7.04004 2.11766L9.16671 5.11516C9.35921 5.381 9.50587 5.63766 9.60671 5.89433C9.72587 6.16933 9.79004 6.44433 9.79004 6.71016C9.79004 7.0585 9.68921 7.39766 9.49671 7.7185C9.35921 7.966 9.14837 8.23183 8.88254 8.49766L8.25921 9.1485C8.26837 9.17599 8.27754 9.19433 8.28671 9.21266C8.39671 9.40516 8.61671 9.73516 9.03837 10.2302C9.48754 10.7435 9.90921 11.211 10.3309 11.6418C10.8717 12.1735 11.3209 12.5952 11.7425 12.9435C12.265 13.3835 12.6042 13.6035 12.8059 13.7043L12.7875 13.7502L13.4567 13.0902C13.7409 12.806 14.0159 12.5952 14.2817 12.4577C14.7859 12.146 15.4275 12.091 16.0692 12.3568C16.3075 12.4577 16.5642 12.5952 16.8392 12.7877L19.8825 14.951C20.2217 15.1802 20.4692 15.4735 20.6159 15.8218C20.7534 16.1702 20.8175 16.491 20.8175 16.8118C20.8175 17.2518 20.7167 17.6918 20.5242 18.1043C20.3317 18.5168 20.0934 18.8743 19.7909 19.2043C19.2684 19.7818 18.7 20.1943 18.04 20.4602C17.4075 20.7168 16.72 20.8543 15.9959 20.8543ZM5.12421 2.521C4.62004 2.521 4.15254 2.741 3.70337 3.181C3.28171 3.57516 2.98837 4.006 2.80504 4.4735C2.61254 4.95016 2.52087 5.45433 2.52087 5.99516C2.52087 6.84766 2.72254 7.7735 3.12587 8.72683C3.53837 9.6985 4.11587 10.7068 4.84921 11.7152C5.58254 12.7235 6.41671 13.7043 7.33337 14.6302C8.25004 15.5377 9.24004 16.381 10.2575 17.1235C11.2475 17.8477 12.265 18.4343 13.2734 18.856C14.8409 19.5252 16.3075 19.681 17.5175 19.1768C17.985 18.9843 18.3975 18.691 18.7734 18.2693C18.9842 18.0402 19.1492 17.7927 19.2867 17.4993C19.3967 17.2702 19.4517 17.0318 19.4517 16.7935C19.4517 16.6468 19.4242 16.5002 19.3509 16.3352C19.3234 16.2802 19.2684 16.1793 19.0942 16.0602L16.0509 13.8968C15.8675 13.7685 15.7025 13.6768 15.5467 13.6127C15.345 13.5302 15.2625 13.4477 14.9509 13.6402C14.7675 13.7318 14.6025 13.8693 14.4192 14.0527L13.7225 14.7402C13.365 15.0885 12.815 15.171 12.3934 15.0152L12.1459 14.9052C11.77 14.7035 11.33 14.3918 10.8442 13.9793C10.4042 13.6035 9.92754 13.1635 9.35004 12.5952C8.90087 12.1368 8.45171 11.651 7.98421 11.1102C7.55337 10.606 7.24171 10.1752 7.04921 9.81766L6.93921 9.54266C6.88421 9.33183 6.86587 9.21266 6.86587 9.08433C6.86587 8.75433 6.98504 8.461 7.21421 8.23183L7.90171 7.51683C8.08504 7.3335 8.22254 7.15933 8.31421 7.0035C8.38754 6.88433 8.41504 6.7835 8.41504 6.69183C8.41504 6.6185 8.38754 6.5085 8.34171 6.3985C8.27754 6.25183 8.17671 6.08683 8.04837 5.91266L5.92171 2.906C5.83004 2.77766 5.72004 2.686 5.58254 2.62183C5.43587 2.55766 5.28004 2.521 5.12421 2.521ZM12.7875 13.7593L12.6409 14.3827L12.8884 13.741C12.8425 13.7318 12.8059 13.741 12.7875 13.7593Z" fill="#1C4FD1"/>
</svg>
