<svg width="20" height="20" viewBox="0 0 20 20" fill="none" xmlns="http://www.w3.org/2000/svg">
<path d="M10 18.0418C9.74169 18.0418 9.49169 18.0085 9.28335 17.9335C6.10002 16.8418 1.04169 12.9668 1.04169 7.24183C1.04169 4.32516 3.40002 1.9585 6.30002 1.9585C7.70835 1.9585 9.02502 2.5085 10 3.49183C10.975 2.5085 12.2917 1.9585 13.7 1.9585C16.6 1.9585 18.9584 4.3335 18.9584 7.24183C18.9584 12.9752 13.9 16.8418 10.7167 17.9335C10.5084 18.0085 10.2584 18.0418 10 18.0418ZM6.30002 3.2085C4.09169 3.2085 2.29169 5.01683 2.29169 7.24183C2.29169 12.9335 7.76669 16.1002 9.69169 16.7585C9.84169 16.8085 10.1667 16.8085 10.3167 16.7585C12.2334 16.1002 17.7167 12.9418 17.7167 7.24183C17.7167 5.01683 15.9167 3.2085 13.7084 3.2085C12.4417 3.2085 11.2667 3.80016 10.5084 4.82516C10.275 5.14183 9.74169 5.14183 9.50835 4.82516C8.73335 3.79183 7.56669 3.2085 6.30002 3.2085Z" fill="#858DA3"/>
</svg>
