<svg width="16" height="16" viewBox="0 0 16 16" fill="none" xmlns="http://www.w3.org/2000/svg">
<path fill-rule="evenodd" clip-rule="evenodd" d="M13.8691 6.52903C14.1926 6.20552 14.1926 5.67447 13.8691 5.35096C13.5456 5.02745 13.0145 5.02745 12.691 5.35096L8.34433 9.69763C8.1545 9.88745 7.84556 9.88745 7.65573 9.69763L3.30906 5.35096C2.98556 5.02745 2.4545 5.02745 2.13099 5.35096C1.96519 5.51677 1.88669 5.72969 1.88669 5.94C1.88669 6.1601 1.97852 6.36596 2.12301 6.52077L2.12693 6.52497L6.47538 10.8734L6.47657 10.8746C6.88133 11.2867 7.42758 11.5067 8.00003 11.5067C8.57584 11.5067 9.12041 11.2777 9.5224 10.8757L13.8691 6.52903Z" fill="#B7BACA"/>
</svg>
