<svg width="16" height="16" viewBox="0 0 16 16" fill="none" xmlns="http://www.w3.org/2000/svg">
<path d="M7.99998 9.44655C6.57998 9.44655 5.41998 8.29321 5.41998 6.86655C5.41998 5.43988 6.57998 4.29321 7.99998 4.29321C9.41998 4.29321 10.58 5.44655 10.58 6.87321C10.58 8.29988 9.41998 9.44655 7.99998 9.44655ZM7.99998 5.29321C7.13332 5.29321 6.41998 5.99988 6.41998 6.87321C6.41998 7.74655 7.12665 8.45321 7.99998 8.45321C8.87332 8.45321 9.57998 7.74655 9.57998 6.87321C9.57998 5.99988 8.86665 5.29321 7.99998 5.29321Z" fill="#292D32"/>
<path d="M8 15.1733C7.01333 15.1733 6.01999 14.7999 5.24666 14.0599C3.28 12.1666 1.10666 9.14659 1.92666 5.55325C2.66666 2.29325 5.51333 0.833252 8 0.833252C8 0.833252 8 0.833252 8.00666 0.833252C10.4933 0.833252 13.34 2.29325 14.08 5.55992C14.8933 9.15325 12.72 12.1666 10.7533 14.0599C9.97999 14.7999 8.98666 15.1733 8 15.1733ZM8 1.83325C6.06 1.83325 3.56666 2.86659 2.90666 5.77325C2.18666 8.91325 4.16 11.6199 5.94666 13.3333C7.1 14.4466 8.90666 14.4466 10.06 13.3333C11.84 11.6199 13.8133 8.91325 13.1067 5.77325C12.44 2.86659 9.93999 1.83325 8 1.83325Z" fill="#292D32"/>
</svg>
