<svg width="20" height="20" viewBox="0 0 20 20" fill="none" xmlns="http://www.w3.org/2000/svg">
<path d="M9.99996 19.0082C9.42496 19.0082 8.88329 18.7165 8.49996 18.2082L7.24996 16.5415C7.22496 16.5082 7.12496 16.4665 7.08329 16.4582H6.66663C3.19163 16.4582 1.04163 15.5165 1.04163 10.8332V6.6665C1.04163 2.98317 2.98329 1.0415 6.66663 1.0415H13.3333C17.0166 1.0415 18.9583 2.98317 18.9583 6.6665V10.8332C18.9583 14.5165 17.0166 16.4582 13.3333 16.4582H12.9166C12.85 16.4582 12.7916 16.4915 12.75 16.5415L11.5 18.2082C11.1166 18.7165 10.575 19.0082 9.99996 19.0082ZM6.66663 2.2915C3.68329 2.2915 2.29163 3.68317 2.29163 6.6665V10.8332C2.29163 14.5998 3.58329 15.2082 6.66663 15.2082H7.08329C7.50829 15.2082 7.99163 15.4498 8.24996 15.7915L9.49996 17.4582C9.79163 17.8415 10.2083 17.8415 10.5 17.4582L11.75 15.7915C12.025 15.4248 12.4583 15.2082 12.9166 15.2082H13.3333C16.3166 15.2082 17.7083 13.8165 17.7083 10.8332V6.6665C17.7083 3.68317 16.3166 2.2915 13.3333 2.2915H6.66663Z" fill="#1C4FD1"/>
<path d="M9.99996 10.0002C9.53329 10.0002 9.16663 9.62516 9.16663 9.16683C9.16663 8.7085 9.54163 8.3335 9.99996 8.3335C10.4583 8.3335 10.8333 8.7085 10.8333 9.16683C10.8333 9.62516 10.4666 10.0002 9.99996 10.0002Z" fill="#1C4FD1"/>
<path d="M13.3333 10.0002C12.8667 10.0002 12.5 9.62516 12.5 9.16683C12.5 8.7085 12.875 8.3335 13.3333 8.3335C13.7917 8.3335 14.1667 8.7085 14.1667 9.16683C14.1667 9.62516 13.8 10.0002 13.3333 10.0002Z" fill="#1C4FD1"/>
<path d="M6.66671 10.0002C6.20004 10.0002 5.83337 9.62516 5.83337 9.16683C5.83337 8.7085 6.20837 8.3335 6.66671 8.3335C7.12504 8.3335 7.50004 8.7085 7.50004 9.16683C7.50004 9.62516 7.13337 10.0002 6.66671 10.0002Z" fill="#1C4FD1"/>
</svg>
