<svg width="254" height="246" viewBox="0 0 254 246" fill="none" xmlns="http://www.w3.org/2000/svg">
<path d="M128.33 245C191.476 245 242.666 193.83 242.666 130.709C242.666 67.5875 191.476 16.4175 128.33 16.4175C65.1836 16.4175 13.9935 67.5875 13.9935 130.709C13.9935 193.83 65.1836 245 128.33 245Z" fill="url(#paint0_linear_7_2214)"/>
<path d="M190.014 43.0117H63.353C55.4581 43.0117 49.058 49.4093 49.058 57.3011H204.309C204.309 49.4093 197.908 43.0117 190.014 43.0117Z" fill="url(#paint1_linear_7_2214)"/>
<path d="M49.058 56.9111H204.309V175.106C204.309 180.361 202.22 185.401 198.503 189.117C194.786 192.833 189.744 194.92 184.487 194.92H68.8799C63.6228 194.92 58.581 192.833 54.8637 189.117C51.1464 185.401 49.058 180.361 49.058 175.106V56.9111Z" fill="url(#paint2_linear_7_2214)"/>
<path d="M177.622 71.8403H75.7948C73.6742 71.8403 71.9551 73.5569 71.9551 75.6744C71.9551 77.7919 73.6742 79.5084 75.7948 79.5084H177.622C179.743 79.5084 181.462 77.7919 181.462 75.6744C181.462 73.5569 179.743 71.8403 177.622 71.8403Z" fill="url(#paint3_linear_7_2214)"/>
<path d="M177.622 104.419H75.7948C73.6742 104.419 71.9551 106.136 71.9551 108.253C71.9551 110.37 73.6742 112.087 75.7948 112.087H177.622C179.743 112.087 181.462 110.37 181.462 108.253C181.462 106.136 179.743 104.419 177.622 104.419Z" fill="url(#paint4_linear_7_2214)"/>
<path d="M177.622 136.998H75.7948C73.6742 136.998 71.9551 138.715 71.9551 140.832C71.9551 142.95 73.6742 144.666 75.7948 144.666H177.622C179.743 144.666 181.462 142.95 181.462 140.832C181.462 138.715 179.743 136.998 177.622 136.998Z" fill="url(#paint5_linear_7_2214)"/>
<path d="M177.622 169.577H75.7949C73.6743 169.577 71.9552 171.293 71.9552 173.411C71.9552 175.528 73.6743 177.245 75.7949 177.245H177.622C179.743 177.245 181.462 175.528 181.462 173.411C181.462 171.293 179.743 169.577 177.622 169.577Z" fill="url(#paint6_linear_7_2214)"/>
<g filter="url(#filter0_d_7_2214)">
<path d="M75.1052 130.01H20.8839C16.5279 130.01 12.9967 133.54 12.9967 137.894V215.365C12.9967 219.719 16.5279 223.249 20.8839 223.249H75.1052C79.4612 223.249 82.9924 219.719 82.9924 215.365V137.894C82.9924 133.54 79.4612 130.01 75.1052 130.01Z" fill="url(#paint7_linear_7_2214)"/>
</g>
<g filter="url(#filter1_d_7_2214)">
<path d="M229.456 9H169.567C166.776 9 164.513 11.2615 164.513 14.0511V42.1897C164.513 44.9793 166.776 47.2408 169.567 47.2408H229.456C232.247 47.2408 234.509 44.9793 234.509 42.1897V14.0511C234.509 11.2615 232.247 9 229.456 9Z" fill="url(#paint8_linear_7_2214)"/>
</g>
<path d="M69.0548 168.766H26.9343C25.516 168.766 24.3662 169.915 24.3662 171.333V171.342C24.3662 172.759 25.516 173.909 26.9343 173.909H69.0548C70.4731 173.909 71.6229 172.759 71.6229 171.342V171.333C71.6229 169.915 70.4731 168.766 69.0548 168.766Z" fill="url(#paint9_linear_7_2214)"/>
<path d="M69.0787 204.951H27.3202C25.9141 204.951 24.7742 206.065 24.7742 207.438V207.446C24.7742 208.82 25.9141 209.933 27.3202 209.933H69.0787C70.4848 209.933 71.6247 208.82 71.6247 207.446V207.438C71.6247 206.065 70.4848 204.951 69.0787 204.951Z" fill="url(#paint10_linear_7_2214)"/>
<path d="M69.0787 186.019H27.3202C25.9141 186.019 24.7742 187.133 24.7742 188.506V188.514C24.7742 189.888 25.9141 191.001 27.3202 191.001H69.0787C70.4848 191.001 71.6247 189.888 71.6247 188.514V188.506C71.6247 187.133 70.4848 186.019 69.0787 186.019Z" fill="url(#paint11_linear_7_2214)"/>
<path d="M42.3349 141.973H30.0262C27.2997 141.973 25.0895 144.183 25.0895 146.908V150.322C25.0895 153.048 27.2997 155.257 30.0262 155.257H42.3349C45.0614 155.257 47.2717 153.048 47.2717 150.322V146.908C47.2717 144.183 45.0614 141.973 42.3349 141.973Z" fill="url(#paint12_linear_7_2214)"/>
<path d="M179.294 33.9234C182.503 33.9234 185.104 31.3234 185.104 28.1162C185.104 24.909 182.503 22.3091 179.294 22.3091C176.086 22.3091 173.485 24.909 173.485 28.1162C173.485 31.3234 176.086 33.9234 179.294 33.9234Z" fill="#81D5E7"/>
<path d="M200.055 33.9234C203.264 33.9234 205.865 31.3234 205.865 28.1162C205.865 24.909 203.264 22.3091 200.055 22.3091C196.847 22.3091 194.246 24.909 194.246 28.1162C194.246 31.3234 196.847 33.9234 200.055 33.9234Z" fill="#81D5E7"/>
<path d="M220.816 33.9234C224.024 33.9234 226.625 31.3234 226.625 28.1162C226.625 24.909 224.024 22.3091 220.816 22.3091C217.608 22.3091 215.007 24.909 215.007 28.1162C215.007 31.3234 217.608 33.9234 220.816 33.9234Z" fill="#81D5E7"/>
<path d="M118.621 210.21C119.139 208.066 122.188 208.066 122.706 210.21L124.435 217.369C124.62 218.135 125.218 218.734 125.984 218.918L133.143 220.646C135.287 221.163 135.287 224.213 133.143 224.731L125.984 226.458C125.218 226.643 124.62 227.241 124.435 228.007L122.706 235.166C122.188 237.31 119.139 237.31 118.621 235.166L116.893 228.007C116.708 227.241 116.109 226.643 115.343 226.458L108.184 224.731C106.04 224.213 106.04 221.163 108.184 220.646L115.343 218.918C116.109 218.734 116.708 218.135 116.893 217.369L118.621 210.21Z" fill="url(#paint13_linear_7_2214)"/>
<path d="M35.8853 18.8957C36.403 16.7519 39.4522 16.7519 39.9699 18.8957L41.6988 26.0548C41.8838 26.821 42.4821 27.4191 43.2483 27.604L50.4069 29.3314C52.5512 29.8488 52.5512 32.8988 50.4069 33.4163L43.2483 35.1436C42.4821 35.3285 41.8838 35.9267 41.6988 36.6929L39.9699 43.852C39.4522 45.9958 36.403 45.9958 35.8853 43.852L34.1564 36.6929C33.9714 35.9267 33.3731 35.3285 32.6069 35.1436L25.4482 33.4163C23.304 32.8988 23.304 29.8488 25.4482 29.3314L32.6069 27.604C33.3731 27.4191 33.9714 26.821 34.1564 26.0548L35.8853 18.8957Z" fill="url(#paint14_linear_7_2214)"/>
<path fill-rule="evenodd" clip-rule="evenodd" d="M123.771 20.0339C125.699 20.0339 127.262 18.4717 127.262 16.5446C127.262 14.6176 125.699 13.0554 123.771 13.0554C121.844 13.0554 120.281 14.6176 120.281 16.5446C120.281 18.4717 121.844 20.0339 123.771 20.0339ZM123.771 22.6508C127.145 22.6508 129.88 19.917 129.88 16.5446C129.88 13.1723 127.145 10.4385 123.771 10.4385C120.398 10.4385 117.663 13.1723 117.663 16.5446C117.663 19.917 120.398 22.6508 123.771 22.6508Z" fill="url(#paint15_linear_7_2214)"/>
<path d="M232.314 116.123C231.981 114.817 233.187 113.641 234.485 114.005L243.196 116.452C244.493 116.817 244.91 118.449 243.945 119.39L237.47 125.708C236.505 126.649 234.883 126.193 234.55 124.887L232.314 116.123Z" fill="url(#paint16_linear_7_2214)"/>
<path d="M27.6528 101.134C28.9595 100.803 30.1349 102.01 29.7685 103.307L27.3094 112.011C26.943 113.308 25.3096 113.722 24.3693 112.757L18.0577 106.276C17.1173 105.31 17.5753 103.689 18.882 103.358L27.6528 101.134Z" fill="url(#paint17_linear_7_2214)"/>
<path d="M194.122 221.702C195.429 221.371 196.604 222.578 196.238 223.875L193.778 232.579C193.412 233.876 191.779 234.29 190.838 233.325L184.527 226.844C183.586 225.878 184.044 224.257 185.351 223.926L194.122 221.702Z" fill="url(#paint18_linear_7_2214)"/>
<path fill-rule="evenodd" clip-rule="evenodd" d="M240.399 70.8522C242.327 70.8522 243.89 69.29 243.89 67.363C243.89 65.4359 242.327 63.8738 240.399 63.8738C238.472 63.8738 236.909 65.4359 236.909 67.363C236.909 69.29 238.472 70.8522 240.399 70.8522ZM240.399 73.4691C243.773 73.4691 246.508 70.7353 246.508 67.363C246.508 63.9907 243.773 61.2568 240.399 61.2568C237.026 61.2568 234.291 63.9907 234.291 67.363C234.291 70.7353 237.026 73.4691 240.399 73.4691Z" fill="url(#paint19_linear_7_2214)"/>
<defs>
<filter id="filter0_d_7_2214" x="0.996704" y="122.01" width="99.9957" height="123.238" filterUnits="userSpaceOnUse" color-interpolation-filters="sRGB">
<feFlood flood-opacity="0" result="BackgroundImageFix"/>
<feColorMatrix in="SourceAlpha" type="matrix" values="0 0 0 0 0 0 0 0 0 0 0 0 0 0 0 0 0 0 127 0" result="hardAlpha"/>
<feOffset dx="3" dy="7"/>
<feGaussianBlur stdDeviation="7.5"/>
<feComposite in2="hardAlpha" operator="out"/>
<feColorMatrix type="matrix" values="0 0 0 0 0.104618 0 0 0 0 0.465612 0 0 0 0 0.545833 0 0 0 0.15 0"/>
<feBlend mode="normal" in2="BackgroundImageFix" result="effect1_dropShadow_7_2214"/>
<feBlend mode="normal" in="SourceGraphic" in2="effect1_dropShadow_7_2214" result="shape"/>
</filter>
<filter id="filter1_d_7_2214" x="157.513" y="0" width="95.9957" height="64.2407" filterUnits="userSpaceOnUse" color-interpolation-filters="sRGB">
<feFlood flood-opacity="0" result="BackgroundImageFix"/>
<feColorMatrix in="SourceAlpha" type="matrix" values="0 0 0 0 0 0 0 0 0 0 0 0 0 0 0 0 0 0 127 0" result="hardAlpha"/>
<feOffset dx="6" dy="4"/>
<feGaussianBlur stdDeviation="6.5"/>
<feComposite in2="hardAlpha" operator="out"/>
<feColorMatrix type="matrix" values="0 0 0 0 0.104618 0 0 0 0 0.465612 0 0 0 0 0.545833 0 0 0 0.09 0"/>
<feBlend mode="normal" in2="BackgroundImageFix" result="effect1_dropShadow_7_2214"/>
<feBlend mode="normal" in="SourceGraphic" in2="effect1_dropShadow_7_2214" result="shape"/>
</filter>
<linearGradient id="paint0_linear_7_2214" x1="127.448" y1="-20.7986" x2="129.789" y2="380.576" gradientUnits="userSpaceOnUse">
<stop stop-color="white" stop-opacity="0"/>
<stop offset="1" stop-color="#8EE2F4"/>
</linearGradient>
<linearGradient id="paint1_linear_7_2214" x1="48.8822" y1="46.3095" x2="204.386" y2="57.2788" gradientUnits="userSpaceOnUse">
<stop stop-color="#90E3F5"/>
<stop offset="1" stop-color="#65C8DE"/>
</linearGradient>
<linearGradient id="paint2_linear_7_2214" x1="44.3965" y1="160.401" x2="268.681" y2="164.39" gradientUnits="userSpaceOnUse">
<stop stop-color="white"/>
<stop offset="1" stop-color="#BCF3FF"/>
</linearGradient>
<linearGradient id="paint3_linear_7_2214" x1="67.3236" y1="79.1922" x2="187.939" y2="79.1922" gradientUnits="userSpaceOnUse">
<stop stop-color="#65C8DE"/>
<stop offset="1" stop-color="#D2F7FF"/>
</linearGradient>
<linearGradient id="paint4_linear_7_2214" x1="67.3236" y1="111.771" x2="187.939" y2="111.771" gradientUnits="userSpaceOnUse">
<stop stop-color="#65C8DE"/>
<stop offset="1" stop-color="#D2F7FF"/>
</linearGradient>
<linearGradient id="paint5_linear_7_2214" x1="67.3236" y1="144.35" x2="187.939" y2="144.35" gradientUnits="userSpaceOnUse">
<stop stop-color="#65C8DE"/>
<stop offset="1" stop-color="#D2F7FF"/>
</linearGradient>
<linearGradient id="paint6_linear_7_2214" x1="67.3237" y1="176.929" x2="187.939" y2="176.929" gradientUnits="userSpaceOnUse">
<stop stop-color="#65C8DE"/>
<stop offset="1" stop-color="#D2F7FF"/>
</linearGradient>
<linearGradient id="paint7_linear_7_2214" x1="10.895" y1="199.928" x2="145.053" y2="210.95" gradientUnits="userSpaceOnUse">
<stop stop-color="white"/>
<stop offset="1" stop-color="#BCF3FF"/>
</linearGradient>
<linearGradient id="paint8_linear_7_2214" x1="162.412" y1="37.6759" x2="263.479" y2="40.6006" gradientUnits="userSpaceOnUse">
<stop stop-color="white"/>
<stop offset="1" stop-color="#BCF3FF"/>
</linearGradient>
<linearGradient id="paint9_linear_7_2214" x1="77.1072" y1="174.062" x2="20.2884" y2="174.062" gradientUnits="userSpaceOnUse">
<stop stop-color="#D2F7FF"/>
<stop offset="1" stop-color="#65C8DE"/>
</linearGradient>
<linearGradient id="paint10_linear_7_2214" x1="77.0619" y1="210.082" x2="20.7314" y2="210.082" gradientUnits="userSpaceOnUse">
<stop stop-color="#D2F7FF"/>
<stop offset="1" stop-color="#65C8DE"/>
</linearGradient>
<linearGradient id="paint11_linear_7_2214" x1="77.0619" y1="191.15" x2="20.7314" y2="191.15" gradientUnits="userSpaceOnUse">
<stop stop-color="#D2F7FF"/>
<stop offset="1" stop-color="#65C8DE"/>
</linearGradient>
<linearGradient id="paint12_linear_7_2214" x1="62.6533" y1="155.129" x2="22.2821" y2="155.129" gradientUnits="userSpaceOnUse">
<stop offset="0.243799" stop-color="#D2F7FF"/>
<stop offset="1" stop-color="#6BCBE0"/>
</linearGradient>
<linearGradient id="paint13_linear_7_2214" x1="99.6728" y1="211.416" x2="141.835" y2="211.69" gradientUnits="userSpaceOnUse">
<stop stop-color="#90E3F5"/>
<stop offset="1" stop-color="#65C8DE"/>
</linearGradient>
<linearGradient id="paint14_linear_7_2214" x1="16.9366" y1="20.1016" x2="59.0989" y2="20.3755" gradientUnits="userSpaceOnUse">
<stop stop-color="#90E3F5"/>
<stop offset="1" stop-color="#65C8DE"/>
</linearGradient>
<linearGradient id="paint15_linear_7_2214" x1="117.649" y1="13.2569" x2="129.946" y2="13.3368" gradientUnits="userSpaceOnUse">
<stop stop-color="#90E3F5"/>
<stop offset="1" stop-color="#65C8DE"/>
</linearGradient>
<linearGradient id="paint16_linear_7_2214" x1="228.119" y1="122.173" x2="240.766" y2="109.984" gradientUnits="userSpaceOnUse">
<stop stop-color="#90E3F5"/>
<stop offset="1" stop-color="#65C8DE"/>
</linearGradient>
<linearGradient id="paint17_linear_7_2214" x1="21.6059" y1="96.933" x2="33.7733" y2="109.6" gradientUnits="userSpaceOnUse">
<stop stop-color="#90E3F5"/>
<stop offset="1" stop-color="#65C8DE"/>
</linearGradient>
<linearGradient id="paint18_linear_7_2214" x1="188.075" y1="217.501" x2="200.242" y2="230.168" gradientUnits="userSpaceOnUse">
<stop stop-color="#90E3F5"/>
<stop offset="1" stop-color="#65C8DE"/>
</linearGradient>
<linearGradient id="paint19_linear_7_2214" x1="234.277" y1="64.0753" x2="246.574" y2="64.1551" gradientUnits="userSpaceOnUse">
<stop stop-color="#90E3F5"/>
<stop offset="1" stop-color="#65C8DE"/>
</linearGradient>
</defs>
</svg>
