<svg width="20" height="20" viewBox="0 0 20 20" fill="none" xmlns="http://www.w3.org/2000/svg">
<path fill-rule="evenodd" clip-rule="evenodd" d="M8.16125 2.66364C7.75687 2.25926 7.09305 2.25926 6.68866 2.66364C6.28428 3.06803 6.28428 3.73184 6.68866 4.13623L12.122 9.56956C12.3593 9.80684 12.3593 10.193 12.122 10.4303L6.68866 15.8636C6.28428 16.268 6.28428 16.9318 6.68866 17.3362C6.89592 17.5435 7.16208 17.6416 7.42496 17.6416C7.70009 17.6416 7.95741 17.5268 8.15092 17.3462L8.15618 17.3413L13.5917 11.9057L13.5932 11.9043C14.1083 11.3983 14.3833 10.7155 14.3833 9.99993C14.3833 9.28016 14.0971 8.59945 13.5946 8.09697L8.16125 2.66364Z" fill="#B7BACA"/>
</svg>
