<svg width="24" height="24" viewBox="0 0 24 24" fill="none" xmlns="http://www.w3.org/2000/svg">
<path fill-rule="evenodd" clip-rule="evenodd" d="M14.2065 20.8035C14.6917 21.2888 15.4883 21.2888 15.9736 20.8035C16.4588 20.3183 16.4588 19.5217 15.9736 19.0364L9.45358 12.5164C9.16884 12.2317 9.16884 11.7683 9.45358 11.4835L15.9736 4.96354C16.4588 4.47827 16.4588 3.68169 15.9736 3.19643C15.7249 2.94772 15.4055 2.82998 15.09 2.82998C14.7599 2.82998 14.4511 2.96772 14.2189 3.18445L14.2126 3.19033L7.68992 9.71301L7.68811 9.71479C7.07004 10.3219 6.74003 11.1413 6.74003 12C6.74003 12.8637 7.0835 13.6806 7.68647 14.2835L14.2065 20.8035Z" fill="#B7BACA"/>
</svg>
