<svg width="24" height="24" viewBox="0 0 24 24" fill="none" xmlns="http://www.w3.org/2000/svg">
<path d="M5.35316 22C4.7258 22 4.13957 21.7679 3.7179 21.3368C3.1831 20.7952 2.92598 19.9772 3.01855 19.0929L3.39908 15.5116C3.47107 14.8373 3.8516 13.942 4.29384 13.4556L12.7375 3.85012C14.8459 1.4515 17.0468 1.38518 19.2786 3.65115C21.5103 5.91712 21.5721 8.28258 19.4637 10.6812L11.02 20.2867C10.588 20.7841 9.78584 21.2484 9.15848 21.3589L5.84682 21.9668C5.67199 21.9779 5.51772 22 5.35316 22ZM16.0389 3.6401C15.247 3.6401 14.5579 4.17067 13.8586 4.96652L5.41487 14.5831C5.20918 14.8152 4.97263 15.3679 4.93149 15.6884L4.55096 19.2698C4.50982 19.6345 4.5921 19.933 4.77722 20.1209C4.96235 20.3088 5.24003 20.3751 5.57942 20.3199L8.89108 19.7119C9.18934 19.6567 9.683 19.3693 9.88869 19.1371L18.3324 9.53163C19.6077 8.07256 20.0705 6.72403 18.209 4.84493C17.3862 3.99381 16.6766 3.6401 16.0389 3.6401Z" fill="#292D32"/>
<path d="M17.2311 13C17.211 13 17.1808 13 17.1606 13C14.0189 12.6736 11.4915 10.1781 11.0081 6.91404C10.9477 6.48234 11.2297 6.08223 11.6425 6.00852C12.0554 5.94534 12.438 6.24017 12.5085 6.67187C12.8911 9.21997 14.8648 11.1784 17.3217 11.4311C17.7346 11.4732 18.0367 11.8628 17.9964 12.2945C17.946 12.6946 17.6138 13 17.2311 13Z" fill="#292D32"/>
</svg>
