<svg width="55" height="63" viewBox="0 0 55 63" fill="none" xmlns="http://www.w3.org/2000/svg">
<path d="M11.3605 45.3816C11.3605 45.3816 11.4552 28.7178 18.9342 17.0438C26.4132 5.27556 31.6201 4.3341 31.6201 4.3341C31.6201 4.3341 28.4013 4.3341 25.1825 3.76923C21.9637 3.20435 19.1235 4.99312 19.1235 4.99312C19.1235 4.99312 20.0703 1.79216 20.1649 0.756561C19.1235 3.1102 18.3662 4.71068 16.8514 6.78189C15.3367 8.85309 15.9047 12.8072 15.9047 12.8072C15.9047 12.8072 14.39 11.5833 14.8633 8.6648C15.3367 5.74628 14.2953 3.95752 14.2953 3.95752C14.2953 3.95752 14.674 6.87604 13.6326 8.75895C12.5912 10.6419 8.52039 15.7257 8.52039 20.6213C8.52039 25.5169 9.56177 28.7178 9.56177 28.7178C9.56177 28.7178 5.58559 27.4939 4.92289 23.634C4.26019 19.774 4.16552 18.1735 4.16552 18.1735C4.16552 18.1735 2.9348 20.5272 2.9348 23.5398C2.9348 26.5525 2.84013 28.0588 2.84013 28.0588C2.84013 28.0588 1.13605 26.7408 0 28.3413C0 28.3413 1.70408 27.1174 2.36677 28.153C3.02947 29.1886 3.12414 33.0485 4.26019 35.4022C5.39625 37.7558 7.10032 40.0153 7.10032 40.0153C7.10032 40.0153 3.78684 39.6387 1.98809 36.4378C0.189341 33.2368 0.662694 34.0841 0.662694 34.0841C0.662694 34.0841 1.42006 37.85 3.02947 39.6387C4.63888 41.4275 7.85769 42.4631 7.85769 42.4631C7.85769 42.4631 5.68025 42.7456 4.5442 43.7812C4.5442 43.7812 6.81631 42.369 8.04703 42.9338C9.27776 43.4987 9.18308 43.7812 9.18308 43.7812C9.18308 43.7812 6.62696 43.8753 5.96427 45.5699C5.96427 45.5699 8.04703 43.5929 9.18308 44.0636C10.3191 44.7226 11.3605 45.3816 11.3605 45.3816Z" fill="#1C4FD1"/>
<path d="M14.5793 62.516C14.5793 62.516 10.6031 49.1473 12.7806 37.8499C14.958 26.5524 21.4903 5.27544 37.679 3.29838C39.4778 3.11009 40.4245 3.29838 40.4245 1.60376C40.6138 3.58082 39.1938 4.52228 39.1938 4.52228C39.1938 4.52228 48.1875 3.95741 50.3649 8.75884C52.5424 13.4661 52.353 18.0793 52.637 18.7383C52.8264 19.4914 53.0157 20.2446 54.5304 20.3388C54.5304 20.3388 53.6784 21.8451 51.4063 20.3388C51.8797 22.5983 53.6784 27.4938 49.7022 34.7431C47.7141 38.0382 47.4301 38.5089 47.4301 38.5089C47.4301 38.5089 49.0395 30.8831 45.8207 27.4938C42.6019 24.1046 41.0872 24.2929 41.0872 24.2929C41.0872 24.2929 46.2941 28.0587 46.0101 31.6362C44.4007 29.6592 45.2527 29.6592 41.6552 28.5294C38.0577 27.3997 33.3242 25.4226 32.0934 21.6568C31.6201 20.4329 31.7147 20.1505 31.7147 20.1505C31.7147 20.1505 37.8684 14.7842 42.2232 16.5729C44.306 17.4202 44.7794 17.7968 44.7794 17.7968C44.7794 17.7968 42.3179 14.3134 37.395 15.8198C32.4721 17.3261 26.1292 24.7636 26.1292 24.7636C26.1292 24.7636 28.7799 24.1987 28.7799 27.0231C28.3066 26.3641 27.8332 25.046 26.6025 25.9875C25.3718 26.929 21.1116 32.5777 17.4194 33.9899C17.4194 33.9899 20.0702 33.8016 22.5317 31.7304C24.9931 29.7533 28.6853 30.4124 28.6853 30.4124C28.6853 30.4124 23.0997 30.7889 21.6796 34.084C21.6796 34.084 27.2652 31.9187 29.2533 32.8601C27.5492 33.3309 26.0345 33.8016 24.8984 35.8728C23.7624 37.944 21.3956 40.1094 19.5022 40.3918C19.5022 40.3918 22.5317 41.145 26.2238 38.3206C26.2238 38.3206 23.1944 42.0864 19.4075 42.2747C19.4075 42.2747 20.3542 43.0279 23.1944 42.9337C21.585 43.781 18.7448 43.6869 17.6088 43.3103C18.2715 44.6284 18.0821 45.4757 18.0821 45.4757C18.0821 45.4757 16.7567 43.6869 15.6207 43.5928C14.4846 43.5928 12.9699 42.463 14.5793 62.516Z" fill="#1C4FD1"/>
</svg>
