<svg width="32" height="32" viewBox="0 0 32 32" fill="none" xmlns="http://www.w3.org/2000/svg">
<path fill-rule="evenodd" clip-rule="evenodd" d="M21.4507 9.92835C20.134 8.61162 17.9442 8.18042 16.2285 9.89618L9.09208 17.0325C8.73378 17.3909 8.15281 17.3909 7.79451 17.0326C7.4362 16.6743 7.43621 16.0934 7.79451 15.7351L14.9309 8.59865C17.5227 6.00684 20.8855 6.76806 22.7483 8.63082C23.6855 9.56805 24.3273 10.8507 24.4034 12.2459C24.4806 13.663 23.9695 15.1304 22.7161 16.3838L14.9309 24.169C14.5151 24.5848 13.7967 25.086 12.9461 25.2924C12.0473 25.5104 10.9683 25.3965 10.0652 24.4934C9.1168 23.545 8.98064 22.4699 9.24709 21.5455C9.49106 20.6992 10.0515 20.0301 10.4217 19.6598L16.4222 13.6594L17.0716 14.3075L17.7203 14.9563L11.7193 20.9574C11.4408 21.2359 11.1292 21.6411 11.0103 22.0538C10.9138 22.3884 10.9238 22.7569 11.3627 23.1959C11.7264 23.5595 12.1071 23.6077 12.5135 23.5091C12.9681 23.3988 13.4005 23.1044 13.6334 22.8715L21.4186 15.0863C22.319 14.1859 22.6188 13.2205 22.5711 12.3457C22.5222 11.4491 22.1033 10.5809 21.4507 9.92835ZM17.7203 13.6587C18.0787 14.017 18.0786 14.598 17.7203 14.9563L17.0716 14.3075L16.4228 13.6587C16.7811 13.3004 17.362 13.3004 17.7203 13.6587Z" fill="#858DA3"/>
</svg>
